<?xml version="1.0" standalone="no"?>
<!DOCTYPE svg PUBLIC "-//W3C//DTD SVG 20010904//EN"
 "http://www.w3.org/TR/2001/REC-SVG-20010904/DTD/svg10.dtd">
<svg version="1.0" xmlns="http://www.w3.org/2000/svg"
 width="256.000000pt" height="256.000000pt" viewBox="0 0 256.000000 256.000000"
 preserveAspectRatio="xMidYMid meet">
<metadata>
Created by potrace 1.14, written by Peter Selinger 2001-2017
</metadata>
<g transform="translate(0.000000,256.000000) scale(0.100000,-0.100000)"
fill="#000000" stroke="none">
<path d="M0 1280 l0 -1280 1280 0 1280 0 0 1280 0 1280 -1280 0 -1280 0 0
-1280z m1717 250 c43 -19 83 -69 83 -102 0 -14 -9 -18 -39 -18 -33 0 -40 4
-45 25 -13 53 -120 72 -167 29 -24 -22 -25 -76 -1 -97 9 -8 49 -25 87 -37 137
-44 175 -79 175 -161 0 -88 -61 -140 -174 -146 -90 -6 -149 21 -183 82 -32 56
-29 65 15 65 32 0 39 -4 50 -30 19 -43 64 -63 124 -58 62 6 88 29 88 79 0 49
-15 62 -97 90 -144 47 -183 81 -183 159 0 33 6 55 22 75 48 61 163 83 245 45z
m319 -14 c26 -26 34 -42 34 -71 0 -50 -53 -105 -100 -105 -46 0 -100 56 -100
102 1 98 98 142 166 74z m-1164 14 c56 -16 88 -60 88 -122 0 -42 -5 -54 -31
-81 -23 -22 -28 -32 -18 -36 8 -2 26 -17 41 -32 23 -23 28 -36 28 -79 0 -113
-48 -144 -232 -148 l-128 -4 0 256 0 256 108 0 c59 0 124 -5 144 -10z m508
-20 l0 -30 -120 0 -120 0 0 -80 0 -80 110 0 110 0 0 -30 0 -30 -110 0 -110 0
0 -115 0 -115 -40 0 -40 0 0 255 0 255 160 0 160 0 0 -30z"/>
<path d="M1915 1505 c-52 -51 -16 -145 55 -145 44 0 80 39 80 85 0 46 -36 85
-80 85 -19 0 -40 -9 -55 -25z m93 -34 c2 -13 -2 -27 -8 -31 -9 -6 -9 -13 -1
-29 7 -13 8 -21 2 -21 -6 0 -15 9 -21 20 -6 11 -15 20 -20 20 -6 0 -10 -9 -10
-20 0 -11 -4 -20 -10 -20 -5 0 -10 25 -10 56 l0 55 38 -3 c30 -2 38 -7 40 -27z"/>
<path d="M1950 1471 c0 -15 6 -21 21 -21 25 0 22 33 -4 38 -12 2 -17 -3 -17
-17z"/>
<path d="M695 1468 c-3 -8 -5 -44 -3 -79 l3 -64 71 0 c87 0 114 18 114 75 0
54 -25 72 -110 78 -56 4 -71 2 -75 -10z"/>
<path d="M692 1179 l3 -84 83 0 c79 0 85 1 108 28 30 36 30 68 0 104 -23 26
-30 28 -111 32 l-86 3 3 -83z"/>
</g>
</svg>
